<?xml version="1.0" standalone="no"?>
<!DOCTYPE svg PUBLIC "-//W3C//DTD SVG 20010904//EN"
 "http://www.w3.org/TR/2001/REC-SVG-20010904/DTD/svg10.dtd">
<svg version="1.0" xmlns="http://www.w3.org/2000/svg"
 width="507.000000pt" height="507.000000pt" viewBox="0 0 507.000000 507.000000"
 preserveAspectRatio="xMidYMid meet">
<metadata>
Created by potrace 1.14, written by Peter Selinger 2001-2017
</metadata>
<g transform="translate(0.000000,507.000000) scale(0.100000,-0.100000)"
fill="#000000" stroke="none">
<path d="M883 4659 c-144 -11 -232 -47 -316 -133 -66 -66 -101 -131 -123 -226
-16 -70 -18 -192 -18 -1755 0 -1307 3 -1696 13 -1752 37 -210 190 -358 395
-381 80 -9 3446 -9 3510 0 61 9 149 43 196 76 83 59 162 170 176 250 3 14 7
29 10 34 3 4 7 39 10 76 6 88 5 3264 -1 3364 -5 84 -33 179 -69 236 -63 100
-176 176 -301 203 -47 10 -407 13 -1725 13 -916 1 -1706 -2 -1757 -5z"/>
</g>
</svg>
